# xmcd
#
# Track frame offsets:
#	150
#	19257
#	35616
#	55046
#	72445
#	87805
#	104133
#	117967
#	134434
#	150104
#	165818
#	169784
#
# Disc length: 2498 seconds
#
# Revision: 0
# Processed by: cddbd v1.5.2PL0 Copyright (c) Steve Scherf et al.
# Submitted via: EasyCDDAExtractor 16.0.6.1
#
DISCID=9309c00c
DTITLE=Θαλασσινός Παντελής - Στης καρδιάς μου τ' ανοιχτά 1
DYEAR=2003
DGENRE=Έντεχνη
TTITLE0=Θαλασσινός Παντελής - Στης καρδιάς μου τ' ανοιχτά [Παντελής Θαλασσινός
TTITLE0=Ανδρέας Νεοφυτίδης]
TTITLE1=Θαλασσινός Παντελής - Ιστορία [Παντελής Θαλασσινός-Νίκος Κουρουπάκης]
TTITLE2=Θαλασσινός Παντελής - Αν προδοθείς [Παντελής Θαλασσινός-Νίκος Βελιώτης
TTITLE2=]
TTITLE3=Θαλασσινός Παντελής - Ν' αγαπάς [Παντελής Θαλασσινός-Νίκος Βελιώτης]
TTITLE4=Θαλασσινός Παντελής - Όλα σε ζητούν [Πάρις Περυσινάκης]
TTITLE5=Θαλασσινός Παντελής - Εγώ, που λες [Σταμάτης Χατζηευσταθίου]
TTITLE6=Θαλασσινός Παντελής - Ό,τι αγάπησα πολύ [Παντελής Θαλασσινός-Ηλίας Κατ
TTITLE6=σούλης]
TTITLE7=Θαλασσινός Παντελής - Γύρισε [Παντελής Θαλασσινός-Ηλίας Κατσούλης]
TTITLE8=Θαλασσινός Παντελής - Απ' την πέτρα ως το Μόλυβο [Παντ. Θαλασσινός-Χρυ
TTITLE8=σόστ. Γελαγώτης]
TTITLE9=Κουρουπάκης Νίκος - Φυλάξου απ' την αγάπη μου [Παντ. Θαλασσινός-Ελένη 
TTITLE9=Παπαδοπούλου]
TTITLE10=Άνευ ερμηνευτού - Ντουντούκ [Παντελής Θαλασσινός,ορχ/κό, σολίστας Βαχ
TTITLE10=άν Γκαλστιάν]
TTITLE11=Θαλασσινός Παντελής - Πέντε καραβάνια [Παντελής Θαλασσινός-Ηλίας Κατσ
TTITLE11=ούλης]
EXTD=
EXTT0=
EXTT1=
EXTT2=
EXTT3=
EXTT4=
EXTT5=
EXTT6=
EXTT7=
EXTT8=
EXTT9=
EXTT10=
EXTT11=
PLAYORDER=
